#!OML:ASF H:\Male1\Project 1\Capture day 1\Session 1\Male1.ASF
:FULLY-SPECIFIED
:DEGREES
366
root 24.9073 17.5707 2.55619 179.338 8.36198 -175.767
lowerback 15.7507 3.62194 9.10633
upperback 4.5994 7.35892 4.58542
thorax -3.39598 3.99771 -1.58692
lowerneck -4.21993 12.7146 16.7087
upperneck -2.76036 16.4315 -26.2878
head 3.76766 7.54719 -9.83499
rclavicle 7.15625e-015 1.27222e-014
rhumerus -37.7645 25.875 -60.543
rradius 79.29
rwrist -30.3479
rhand -18.8143 3.32607
rfingers 7.12502
rthumb 7.48438 -26.5215
lclavicle 7.15625e-015 1.27222e-014
lhumerus -90.5012 -14.9313 80.9694
lradius 95.6616
lwrist 27.4855
lhand -40.0057 17.5911
lfingers 7.12502
lthumb -12.9733 47.1678
rfemur -16.098 2.72346 20.0628
rtibia 45.1246
rfoot -5.9228 -21.9669
rtoes -17.9635
lfemur -10.4964 -11.3575 -31.6118
ltibia 30.2529
lfoot 6.36652 0.936497
ltoes -0.380829
367
root 24.4747 17.7563 2.60855 178.775 7.57728 -176.75
lowerback 15.7842 3.69464 8.08357
upperback 4.73214 7.18464 3.88904
thorax -3.31369 3.89587 -1.72712
lowerneck -5.25425 12.6489 16.3779
upperneck -2.4274 16.2632 -25.5747
head 3.89119 7.40493 -9.5001
rclavicle -1.31198e-014 5.08889e-014
rhumerus -39.0439 25.2514 -58.3593
rradius 78.4652
rwrist -30.8554
rhand -19.1639 3.52647
rfingers 7.12502
rthumb 7.14697 -26.3329
lclavicle -1.31198e-014 5.08889e-014
lhumerus -89.5706 -15.5352 79.0567
lradius 92.889
lwrist 26.5655
lhand -39.2128 18.3549
lfingers 7.12502
lthumb -12.2088 47.9786
rfemur -15.5819 4.72887 20.9923
rtibia 46.4453
rfoot -9.04627 -21.1205
rtoes -10.6963
lfemur -9.9859 -11.9117 -31.8875
ltibia 31.2264
lfoot 5.35559 -5.13608
ltoes -40.4863
368
root 24.0319 17.9279 2.64775 178.672 6.49838 -177.557
lowerback 15.532 3.64204 6.84504
upperback 4.567 6.7993 3.4146
thorax -3.46378 3.66524 -1.4735
lowerneck -5.76622 12.6351 16.0372
upperneck -2.08057 16.2432 -24.9516
head 3.97114 7.37346 -9.2053
rclavicle 2.8625e-014 -4.13472e-014
rhumerus -40.7506 25.4644 -56.3168
rradius 77.7016
rwrist -32.4355
rhand -19.6 3.44318
rfingers 7.12502
rthumb 6.72593 -26.43
lclavicle 2.8625e-014 -4.13472e-014
lhumerus -88.8921 -15.4206 77.8944
lradius 89.7823
lwrist 24.7331
lhand -38.8244 19.7399
lfingers 7.12502
lthumb -11.8343 49.3855
rfemur -14.712 6.77964 22.1718
rtibia 45.9665
rfoot -9.54574 -23.5147
rtoes -10.0108
lfemur -10.5733 -11.3385 -31.1262
ltibia 33.4729
lfoot 3.98203 -0.671958
ltoes -30.15
369
root 23.5585 18.1014 2.6696 178.08 5.51749 -177.716
lowerback 15.7775 3.46065 6.86385
upperback 4.57957 6.53732 2.87799
thorax -3.53099 3.52727 -2.01971
lowerneck -6.67562 12.5905 15.1632
upperneck -1.4179 16.1945 -23.1859
head 4.02828 7.34317 -8.43074
rclavicle 1.09332e-014 -3.49861e-014
rhumerus -42.8836 25.7431 -54.6803
rradius 76.9496
rwrist -34.5822
rhand -20.0801 3.13112
rfingers 7.12502
rthumb 6.26244 -26.7563
lclavicle 1.09332e-014 -3.49861e-014
lhumerus -87.0035 -15.5913 76.9379
lradius 85.8292
lwrist 23.1129
lhand -37.7808 20.6373
lfingers 7.12502
lthumb -10.8279 50.3382
rfemur -12.7159 7.273 23.6925
rtibia 44.1463
rfoot -3.7609 -23.6696
rtoes -17.337
lfemur -10.4852 -12.0804 -29.4017
ltibia 36.1482
lfoot -0.674884 7.15434
ltoes -1.59135
370
root 23.122 18.1517 2.68734 178.023 4.21525 -177.711
lowerback 15.466 3.28014 6.61731
upperback 4.30188 6.16031 2.46202
thorax -3.66303 3.30519 -2.24356
lowerneck -7.19921 12.3631 14.6932
upperneck -0.678408 15.9357 -21.9629
head 4.10765 7.22196 -7.9606
rclavicle 6.08281e-014 2.62396e-014
rhumerus -45.0894 25.5926 -53.397
rradius 75.5697
rwrist -35.421
rhand -19.9052 3.07568
rfingers 7.12502
rthumb 6.43132 -26.8067
lclavicle 6.08281e-014 2.62396e-014
lhumerus -85.3872 -15.5686 76.4996
lradius 81.4749
lwrist 22.2331
lhand -37.9509 19.668
lfingers 7.12502
lthumb -10.9919 49.3602
rfemur -11.43 6.64737 25.216
rtibia 42.0442
rfoot -3.37919 -23.4454
rtoes -16.0222
lfemur -11.1068 -11.7313 -27.5088
ltibia 38.6073
lfoot -4.48894 11.9592
ltoes 5.83837
371
root 22.6855 18.1675 2.70325 178.12 2.85602 -177.959
lowerback 14.9517 3.10121 6.14554
upperback 4.05778 5.72063 1.92997
thorax -3.66599 3.056 -2.4365
lowerneck -7.87374 12.1741 14.3482
upperneck 0.14471 15.7143 -20.8129
head 4.27018 7.10911 -7.52297
rclavicle -1.82882e-014 -2.62396e-014
rhumerus -47.8277 26.4625 -52.3618
rradius 74.7562
rwrist -36.1646
rhand -20.0695 3.27131
rfingers 7.12502
rthumb 6.27277 -26.6158
lclavicle -1.82882e-014 -2.62396e-014
lhumerus -83.7691 -15.8804 75.9419
lradius 77.4437
lwrist 22.2527
lhand -36.083 18.5085
lfingers 7.12502
lthumb -9.18988 48.2882
rfemur -10.4105 5.47877 26.3296
rtibia 39.9715
rfoot 1.56607 -20.8147
rtoes -31.6427
lfemur -11.8655 -11.4729 -25.6138
ltibia 40.623
lfoot -8.54493 15.1334
ltoes 20.1989
372
root 22.243 18.1428 2.71705 178.437 1.70565 -178.151
lowerback 14.4748 2.88088 5.33004
upperback 3.60133 5.18708 1.61632
thorax -3.97221 2.74118 -2.21176
lowerneck -8.24478 12.0179 14.0958
upperneck 0.918209 15.5611 -20.0113
head 4.42969 7.03521 -7.22072
rclavicle -1.5704e-014 1.82882e-014
rhumerus -50.0935 27.7627 -51.4785
rradius 73.4286
rwrist -35.946
rhand -19.6123 3.81974
rfingers 7.12502
rthumb 6.7141 -26.0538
lclavicle -1.5704e-014 1.82882e-014
lhumerus -82.7252 -15.1157 75.6336
lradius 73.5709
lwrist 21.6816
lhand -34.7648 19.1514
lfingers 7.12502
lthumb -7.91773 48.9832
rfemur -9.98305 4.38637 27.3733
rtibia 38.5665
rfoot 0.0815086 -19.3622
rtoes -26.9044
lfemur -12.5905 -11.6268 -23.5164
ltibia 41.8468
lfoot -3.85599 15.9389
ltoes -5.75574
